<mxfile host="app.diagrams.net" modified="2023-11-22T19:24:31.123Z" agent="Mozilla/5.0 (Windows NT 10.0; Win64; x64) AppleWebKit/537.36 (KHTML, like Gecko) Chrome/119.0.0.0 Safari/537.36" version="22.1.3" etag="-yyzg_6DfHBaH-qmND4Y" type="device">
  <diagram id="h2n4eysGeJnpq-un4g_5" name="Page-1">
    <mxGraphModel dx="882" dy="578" grid="1" gridSize="10" guides="1" tooltips="1" connect="1" arrows="1" fold="1" page="1" pageScale="1" pageWidth="850" pageHeight="1100" math="0" shadow="0">
      <root>
        <mxCell id="0" />
        <mxCell id="1" parent="0" />
        <mxCell id="MPdak9EGKR8U36clafGX-5" style="edgeStyle=orthogonalEdgeStyle;rounded=0;orthogonalLoop=1;jettySize=auto;html=1;exitX=1;exitY=0.5;exitDx=0;exitDy=0;entryX=0;entryY=0.5;entryDx=0;entryDy=0;" edge="1" parent="1" source="MPdak9EGKR8U36clafGX-1" target="MPdak9EGKR8U36clafGX-2">
          <mxGeometry relative="1" as="geometry" />
        </mxCell>
        <mxCell id="MPdak9EGKR8U36clafGX-1" value="Text query" style="rounded=1;whiteSpace=wrap;html=1;" vertex="1" parent="1">
          <mxGeometry x="80" y="80" width="120" height="60" as="geometry" />
        </mxCell>
        <mxCell id="MPdak9EGKR8U36clafGX-6" style="edgeStyle=orthogonalEdgeStyle;rounded=0;orthogonalLoop=1;jettySize=auto;html=1;exitX=0.5;exitY=1;exitDx=0;exitDy=0;entryX=0.5;entryY=0;entryDx=0;entryDy=0;" edge="1" parent="1" source="MPdak9EGKR8U36clafGX-2" target="MPdak9EGKR8U36clafGX-3">
          <mxGeometry relative="1" as="geometry" />
        </mxCell>
        <mxCell id="MPdak9EGKR8U36clafGX-8" style="edgeStyle=orthogonalEdgeStyle;rounded=0;orthogonalLoop=1;jettySize=auto;html=1;exitX=1;exitY=0.5;exitDx=0;exitDy=0;" edge="1" parent="1" source="MPdak9EGKR8U36clafGX-2" target="MPdak9EGKR8U36clafGX-4">
          <mxGeometry relative="1" as="geometry" />
        </mxCell>
        <mxCell id="MPdak9EGKR8U36clafGX-2" value="Text search" style="rounded=1;whiteSpace=wrap;html=1;" vertex="1" parent="1">
          <mxGeometry x="280" y="80" width="120" height="60" as="geometry" />
        </mxCell>
        <mxCell id="MPdak9EGKR8U36clafGX-7" style="edgeStyle=orthogonalEdgeStyle;rounded=0;orthogonalLoop=1;jettySize=auto;html=1;exitX=0.5;exitY=0;exitDx=0;exitDy=0;entryX=0.5;entryY=1;entryDx=0;entryDy=0;" edge="1" parent="1" source="MPdak9EGKR8U36clafGX-3" target="MPdak9EGKR8U36clafGX-2">
          <mxGeometry relative="1" as="geometry" />
        </mxCell>
        <mxCell id="MPdak9EGKR8U36clafGX-3" value="Video&#39;s textual data" style="rounded=1;whiteSpace=wrap;html=1;" vertex="1" parent="1">
          <mxGeometry x="280" y="200" width="120" height="60" as="geometry" />
        </mxCell>
        <mxCell id="MPdak9EGKR8U36clafGX-4" value="Search result" style="rounded=1;whiteSpace=wrap;html=1;" vertex="1" parent="1">
          <mxGeometry x="480" y="80" width="120" height="60" as="geometry" />
        </mxCell>
      </root>
    </mxGraphModel>
  </diagram>
</mxfile>
